<svg width="472" height="100" viewBox="0 0 472 100" fill="none" xmlns="http://www.w3.org/2000/svg">
<path d="M21.7391 80.7C17.8724 80.7 14.3391 79.6667 11.1391 77.6C7.93906 75.6 5.40573 72.7333 3.53906 69C1.6724 65.2667 0.739063 60.8 0.739063 55.6C0.739063 50.4667 1.53906 45.3 3.13906 40.1C4.73906 34.8333 6.93906 29.8333 9.73906 25.1C12.5391 20.3 15.8057 16.0333 19.5391 12.3C23.2724 8.5 27.2391 5.53333 31.4391 3.4C35.7057 1.2 40.0724 0.0999959 44.5391 0.0999959C45.2057 0.0999959 46.1724 0.233329 47.4391 0.499997C48.7724 0.766664 50.0724 1.56666 51.3391 2.9C50.9391 2.83333 50.4724 2.8 49.9391 2.8C49.4724 2.73333 48.9724 2.7 48.4391 2.7C44.9724 2.7 41.4724 3.8 37.9391 6C34.4057 8.13333 31.0391 11.0333 27.8391 14.7C24.6391 18.3667 21.7724 22.5333 19.2391 27.2C16.7724 31.8 14.8057 36.6 13.3391 41.6C11.8724 46.6 11.1391 51.4667 11.1391 56.2C11.1391 59.6667 11.6057 62.9 12.5391 65.9C13.4724 68.9 14.9724 71.3 17.0391 73.1C19.1057 74.9667 21.8391 75.9 25.2391 75.9C28.9057 75.9 32.3391 74.8 35.5391 72.6C38.7391 70.4 41.6391 67.4667 44.2391 63.8C46.8391 60.0667 49.0724 55.9333 50.9391 51.4C52.8057 46.8 54.2391 42.1 55.2391 37.3C56.2391 32.4333 56.7391 27.8 56.7391 23.4C56.7391 21.4667 56.6057 19.4 56.3391 17.2C56.0724 14.9333 55.6057 13 54.9391 11.4C54.3391 9.8 53.4391 8.99999 52.2391 8.99999C51.1057 8.99999 49.8724 9.73333 48.5391 11.2C47.2057 12.6 45.9057 14.4 44.6391 16.6C43.3724 18.8 42.2391 21.1333 41.2391 23.6C40.3057 26 39.6391 28.1667 39.2391 30.1C36.9724 29.6333 35.3391 28.9 34.3391 27.9C33.4057 26.9 32.9391 25.7 32.9391 24.3C32.9391 22.5 33.5724 20.5 34.8391 18.3C36.1057 16.1 37.7391 14 39.7391 12C41.8057 9.93333 43.9391 8.23333 46.1391 6.9C48.4057 5.56667 50.5057 4.9 52.4391 4.9C54.4391 4.9 56.0391 5.63333 57.2391 7.1C58.5057 8.5 59.4724 10.3333 60.1391 12.6C60.8057 14.8667 61.2724 17.3 61.5391 19.9C61.8057 22.4333 61.9391 24.8 61.9391 27C61.9391 33.8 61.1057 40.0333 59.4391 45.7C57.7724 51.3 55.5057 56.2667 52.6391 60.6C49.8391 64.9333 46.6724 68.6 43.1391 71.6C39.6724 74.6 36.0724 76.8667 32.3391 78.4C28.6724 79.9333 25.1391 80.7 21.7391 80.7ZM90.9945 75.8C88.7279 75.8 87.1945 74.8 86.3945 72.8C85.6612 70.8667 85.2279 68.5333 85.0945 65.8C85.1612 65 85.1945 63.9 85.1945 62.5C85.2612 61.1 85.3279 59.9333 85.3945 59C83.9945 61.5333 82.4612 64.0333 80.7945 66.5C79.1279 68.9667 77.3612 71 75.4945 72.6C73.6279 74.2 71.6612 75 69.5945 75C67.3279 75 65.4612 74 63.9945 72C62.5279 69.9333 61.7945 67.4667 61.7945 64.6C61.7945 62.6667 62.0945 60.4333 62.6945 57.9C63.3612 55.3667 64.1612 52.9 65.0945 50.5C66.0945 48.1 67.0945 46.1 68.0945 44.5C69.1612 42.9 70.0945 42.1 70.8945 42.1C71.3612 42.1 72.1612 42.3667 73.2945 42.9C74.4945 43.4333 75.2279 44.1333 75.4945 45C74.7612 46.0667 73.8612 47.7 72.7945 49.9C71.7945 52.1 70.8945 54.4667 70.0945 57C69.3612 59.4667 68.9945 61.7333 68.9945 63.8C68.9945 64.2 69.0279 64.9 69.0945 65.9C69.2279 66.8333 69.5279 67.7 69.9945 68.5C70.4612 69.3 71.1612 69.7 72.0945 69.7C73.5612 69.7 75.0945 68.8 76.6945 67C78.3612 65.2 80.0279 62.9333 81.6945 60.2C83.3612 57.4667 84.9279 54.6667 86.3945 51.8C86.9945 48.9333 87.4945 46.8667 87.8945 45.6C88.2945 44.3333 88.6945 43.5333 89.0945 43.2C89.5612 42.8667 90.0945 42.7 90.6945 42.7C93.3612 42.7 94.6945 43.6667 94.6945 45.6C94.6945 45.6667 94.6279 45.9667 94.4945 46.5C94.3612 46.9667 94.2612 47.2667 94.1945 47.4C93.5279 49.4667 92.9945 52.1667 92.5945 55.5C92.1945 58.7667 91.9945 62.1 91.9945 65.5C91.9945 67.1 92.0945 68.3667 92.2945 69.3C92.4945 70.1667 92.9945 70.6 93.7945 70.6C95.0612 70.6 96.5612 69.6333 98.2945 67.7C100.028 65.7667 101.795 63.3333 103.595 60.4C105.461 57.4667 107.095 54.5 108.495 51.5C108.495 48.0333 108.728 45.4 109.195 43.6C109.728 41.8 110.395 40.5667 111.195 39.9C112.061 39.1667 112.995 38.8 113.995 38.8C115.661 38.8 116.795 39.3333 117.395 40.4C118.061 41.4667 118.395 42.3667 118.395 43.1C118.395 43.7667 118.228 44.4 117.895 45C117.561 45.5333 117.295 46.0333 117.095 46.5C116.628 47.5 116.161 48.7 115.695 50.1C115.295 51.5 115.095 53.2667 115.095 55.4C115.095 57.1333 115.361 58.8 115.895 60.4C116.428 62 117.628 62.8 119.495 62.8C120.695 62.8 121.895 62.2667 123.095 61.2C124.361 60.1333 125.728 58.1333 127.195 55.2L129.095 56.7C127.628 60.1667 125.961 62.5667 124.095 63.9C122.228 65.1667 120.428 65.8 118.695 65.8C116.495 65.8 114.628 65 113.095 63.4C111.561 61.8 110.361 59.8333 109.495 57.5C107.828 60.3667 105.961 63.2333 103.895 66.1C101.895 68.9 99.7945 71.2 97.5945 73C95.3945 74.8667 93.1945 75.8 90.9945 75.8ZM158.68 74C156.08 74 154.08 73.3333 152.68 72C151.347 70.7333 150.68 69.1 150.68 67.1C150.68 65.7667 150.914 64.3667 151.38 62.9C151.847 61.3667 152.314 59.8333 152.78 58.3C153.247 56.7667 153.48 55.3 153.48 53.9C153.48 52.4333 153.114 51.4333 152.38 50.9C151.714 50.3 150.914 50 149.98 50C147.98 50 145.914 50.8333 143.78 52.5C141.714 54.1 139.68 56.1333 137.68 58.6C135.747 61.0667 133.914 63.6333 132.18 66.3C130.447 68.9667 128.947 71.3667 127.68 73.5C126.414 73.5 125.214 73.2667 124.08 72.8C122.947 72.4 121.98 71.6667 121.18 70.6C121.247 70.2667 121.647 69.2667 122.38 67.6C123.047 65.8667 123.814 63.8333 124.68 61.5C125.547 59.1 126.314 56.6 126.98 54C127.647 51.4 127.98 49.0333 127.98 46.9C128.447 46.3667 129.147 45.8333 130.08 45.3C131.08 44.7667 132.114 44.5 133.18 44.5C135.514 44.5 136.68 45.5 136.68 47.5C136.68 49.3 136.114 52.2667 134.98 56.4C136.714 54.0667 138.614 51.8667 140.68 49.8C142.747 47.7333 144.88 46.0667 147.08 44.8C149.347 43.4667 151.614 42.8 153.88 42.8C156.747 42.8 158.847 43.7667 160.18 45.7C161.58 47.6333 162.28 49.7667 162.28 52.1C162.28 54.1 161.947 55.9667 161.28 57.7C160.614 59.4333 159.947 61.0667 159.28 62.6C158.68 64.1333 158.38 65.6333 158.38 67.1C158.38 68.1667 158.614 68.9333 159.08 69.4C159.614 69.8 160.18 70 160.78 70C162.38 70 164.047 69.2333 165.78 67.7C167.514 66.1667 169.147 64.2333 170.68 61.9C172.28 59.5 173.68 57.1 174.88 54.7L176.58 56.1C175.18 59.3667 173.58 62.3667 171.78 65.1C170.047 67.7667 168.08 69.9333 165.88 71.6C163.747 73.2 161.347 74 158.68 74ZM171.746 80.7C172.213 79.3 173.779 75.7 176.446 69.9C179.179 64.0333 182.846 56.1333 187.446 46.2C192.113 36.2 197.579 24.3333 203.846 10.6C204.113 10.0667 204.313 9.5 204.446 8.9C204.646 8.3 204.746 7.76666 204.746 7.3C204.746 6.63333 204.546 6.1 204.146 5.7C203.746 5.3 202.979 5.1 201.846 5.1C199.046 5.1 196.746 5.96666 194.946 7.7C193.213 9.36666 191.913 11.4333 191.046 13.9C190.246 16.3667 189.846 18.8 189.846 21.2C189.846 21.8 189.879 22.5 189.946 23.3C190.013 24.1 190.113 25 190.246 26C188.646 26 187.313 25.5333 186.246 24.6C185.246 23.6 184.479 22.4 183.946 21C183.413 19.5333 183.146 18.1667 183.146 16.9C183.146 14.7667 183.746 12.7 184.946 10.7C186.213 8.7 187.846 6.9 189.846 5.29999C191.846 3.63333 194.046 2.33333 196.446 1.4C198.913 0.466664 201.346 -2.86102e-06 203.746 -2.86102e-06C206.213 -2.86102e-06 208.313 0.699996 210.046 2.09999C211.779 3.43333 213.113 5.9 214.046 9.5C214.979 13.0333 215.446 18.1333 215.446 24.8C215.446 29.1333 215.279 33.5333 214.946 38C214.679 42.4 214.379 46.5333 214.046 50.4C213.713 54.2667 213.546 57.5667 213.546 60.3C214.879 56.3667 216.513 52.2 218.446 47.8C220.446 43.3333 222.579 38.9333 224.846 34.6C227.113 30.2 229.346 26.0667 231.546 22.2C233.746 18.3333 235.713 14.9667 237.446 12.1C239.246 9.16666 240.613 7 241.546 5.6C242.479 4.13333 243.313 3.03333 244.046 2.3C244.779 1.56667 245.779 1.2 247.046 1.2C247.979 1.2 249.446 1.56667 251.446 2.3C250.846 3.56666 250.146 5.6 249.346 8.4C248.546 11.1333 247.679 14.3333 246.746 18C245.746 22 244.746 26.4 243.746 31.2C242.746 35.9333 241.846 40.7333 241.046 45.6C240.246 50.4667 239.579 55.1 239.046 59.5C238.579 63.8333 238.346 67.6667 238.346 71C238.346 72.7333 238.413 74.1 238.546 75.1C238.746 76.1 238.979 76.9667 239.246 77.7C239.579 78.5 239.946 79.5 240.346 80.7C237.479 80.7 235.279 80.2667 233.746 79.4C232.279 78.5333 231.279 77.1333 230.746 75.2C230.279 73.3333 230.046 70.8333 230.046 67.7C230.046 60.3 230.879 52.5333 232.546 44.4C234.279 36.2 236.279 27.7667 238.546 19.1C236.679 21.7667 234.746 24.9333 232.746 28.6C230.746 32.2667 228.779 36.1333 226.846 40.2C224.913 44.2667 223.079 48.3 221.346 52.3C219.613 56.2333 218.079 59.9 216.746 63.3C215.413 66.6333 214.379 69.4333 213.646 71.7C212.646 72.0333 211.946 72.2 211.546 72.2C209.213 72.2 207.713 70.8 207.046 68C206.446 65.1333 206.146 61.2333 206.146 56.3C206.146 52.7667 206.213 49 206.346 45C206.479 40.9333 206.613 36.8333 206.746 32.7C206.879 28.5 206.946 24.5333 206.946 20.8C206.946 19.8 206.913 18.8 206.846 17.8C206.846 16.8 206.846 15.8333 206.846 14.9C201.779 26.7 197.479 36.8 193.946 45.2C190.479 53.5333 187.513 60.3333 185.046 65.6C182.579 70.8 180.313 74.6 178.246 77C176.179 79.4667 174.013 80.7 171.746 80.7ZM254.976 100C253.309 100 251.742 99.4667 250.276 98.4C248.876 97.4 248.176 95.7667 248.176 93.5C248.176 91.3667 248.809 89.4333 250.076 87.7C251.342 86.0333 252.976 84.4667 254.976 83C256.976 81.6 259.109 80.3 261.376 79.1C263.709 77.9667 265.942 76.9 268.076 75.9C268.809 73.9667 269.609 71.5333 270.476 68.6C271.409 65.6 272.209 62.8333 272.876 60.3C270.809 63.1667 268.609 65.7 266.276 67.9C263.942 70.1 261.342 71.2 258.476 71.2C257.276 71.2 256.009 70.9667 254.676 70.5C253.342 69.9667 252.209 69.1 251.276 67.9C250.409 66.6333 249.976 64.9667 249.976 62.9C249.976 61.1667 250.276 59.0667 250.876 56.6C251.542 54.1333 252.342 51.7333 253.276 49.4C254.276 47 255.309 45.0333 256.376 43.5C257.442 41.9 258.376 41.1 259.176 41.1C259.576 41.1 260.142 41.2667 260.876 41.6C261.676 41.8667 262.442 42.2667 263.176 42.8C263.909 43.2667 264.376 43.8 264.576 44.4C263.976 45.2 263.309 46.3667 262.576 47.9C261.842 49.3667 261.142 51.0333 260.476 52.9C259.809 54.7 259.242 56.4667 258.776 58.2C258.376 59.9333 258.176 61.4333 258.176 62.7C258.176 63.7 258.376 64.5667 258.776 65.3C259.176 66.0333 259.942 66.4 261.076 66.4C262.542 66.4 264.042 65.8 265.576 64.6C267.176 63.4 268.709 61.8667 270.176 60C271.709 58.1333 273.076 56.2333 274.276 54.3C274.409 53.8333 274.542 53.1 274.676 52.1C274.809 51.1 275.042 50.0667 275.376 49C275.709 47.8667 276.276 46.8333 277.076 45.9C277.942 44.9667 279.142 44.5 280.676 44.5C281.209 44.5 281.709 44.5333 282.176 44.6C282.642 44.6667 283.209 44.7667 283.876 44.9C283.876 45.9 283.509 47.8667 282.776 50.8C282.109 53.6667 281.209 57 280.076 60.8C278.942 64.6 277.676 68.4 276.276 72.2C279.076 71.0667 281.976 69.2 284.976 66.6C288.042 63.9333 290.509 60.1667 292.376 55.3L294.076 56.7C293.076 60.0333 291.542 62.9333 289.476 65.4C287.476 67.8667 285.209 69.9667 282.676 71.7C280.142 73.4333 277.576 74.8667 274.976 76C273.176 80.3333 271.209 84.3333 269.076 88C267.009 91.6667 264.809 94.5667 262.476 96.7C260.142 98.9 257.642 100 254.976 100ZM253.976 96.3C255.242 96.3 257.009 94.9667 259.276 92.3C261.542 89.6333 263.842 85.6333 266.176 80.3C264.042 81.3667 261.876 82.6 259.676 84C257.542 85.4667 255.742 87 254.276 88.6C252.809 90.2 252.076 91.8333 252.076 93.5C252.076 94.1667 252.209 94.8 252.476 95.4C252.809 96 253.309 96.3 253.976 96.3ZM314.815 80.7C314.148 80.7 313.282 80.6 312.215 80.4C311.148 80.2 310.048 79.8 308.915 79.2C307.848 78.6667 306.948 77.8 306.215 76.6C305.482 75.4 305.115 73.8 305.115 71.8C305.115 70.1333 305.448 67.9667 306.115 65.3C306.782 62.5667 307.915 58.6 309.515 53.4C310.715 49.4667 311.882 45.6 313.015 41.8C314.215 37.9333 315.182 33.9333 315.915 29.8C316.715 25.6667 317.115 21.2667 317.115 16.6C317.115 12.5333 316.682 9.43333 315.815 7.3C315.015 5.1 313.415 4 311.015 4C308.882 4 307.082 4.76667 305.615 6.3C304.215 7.76666 303.148 9.63333 302.415 11.9C301.748 14.1 301.415 16.3667 301.415 18.7C301.415 21.6333 301.915 24.0667 302.915 26C299.648 26 297.282 25.2333 295.815 23.7C294.348 22.1667 293.615 20.2667 293.615 18C293.615 16 294.115 13.9333 295.115 11.8C296.115 9.66666 297.482 7.73333 299.215 6C301.015 4.2 303.082 2.76666 305.415 1.7C307.748 0.566664 310.248 -2.86102e-06 312.915 -2.86102e-06C317.448 -2.86102e-06 320.882 1.66666 323.215 5C325.615 8.33333 326.815 13.0667 326.815 19.2C326.815 23.8 326.182 28.6 324.915 33.6C323.715 38.5333 322.182 43.9333 320.315 49.8C319.648 51.9333 318.848 54.3 317.915 56.9C317.048 59.4333 316.248 62.0667 315.515 64.8C314.848 67.4667 314.515 70.1333 314.515 72.8C314.515 74.0667 314.648 74.9333 314.915 75.4C315.248 75.9333 315.848 76.2 316.715 76.2C318.515 76.2 320.415 75.4333 322.415 73.9C324.482 72.3667 326.548 70.3 328.615 67.7C330.682 65.1 332.648 62.2 334.515 59C336.448 55.8 338.215 52.5333 339.815 49.2C341.415 45.8 342.748 42.6 343.815 39.6C344.882 36.5333 345.582 33.8667 345.915 31.6C348.448 31.6 350.415 32.3 351.815 33.7C353.215 35.1 353.915 36.4333 353.915 37.7C353.915 38.3667 353.615 39.5 353.015 41.1C352.482 42.7 351.548 45.0667 350.215 48.2C349.148 50.7333 348.048 53.4333 346.915 56.3C345.782 59.1 344.815 61.9 344.015 64.7C343.282 67.4333 342.915 70 342.915 72.4C342.915 73.7333 343.082 74.7 343.415 75.3C343.815 75.9 344.515 76.2 345.515 76.2C347.382 76.2 349.515 75.2667 351.915 73.4C354.382 71.6 356.915 69.1333 359.515 66C362.115 62.8 364.648 59.2333 367.115 55.3C369.582 51.3 371.815 47.1667 373.815 42.9C375.815 38.6333 377.382 34.4333 378.515 30.3C379.715 26.1667 380.315 22.4 380.315 19C380.315 15.3333 379.648 12.7333 378.315 11.2C377.048 9.66666 375.448 8.56666 373.515 7.9C374.715 5.96666 375.982 4.56666 377.315 3.7C378.715 2.76666 379.948 2.3 381.015 2.3C382.548 2.3 384.115 3.3 385.715 5.29999C387.382 7.23333 388.215 10.3 388.215 14.5C388.215 18.0333 387.515 22.1 386.115 26.7C384.782 31.3 382.915 36.1 380.515 41.1C378.182 46.0333 375.482 50.8667 372.415 55.6C369.415 60.2667 366.182 64.5 362.715 68.3C359.315 72.1 355.882 75.1 352.415 77.3C348.948 79.5667 345.648 80.7 342.515 80.7C339.915 80.7 337.748 79.9 336.015 78.3C334.348 76.7667 333.515 74.7 333.515 72.1C333.515 71.3 333.615 70.4667 333.815 69.6C334.015 68.7333 334.248 67.8667 334.515 67C331.248 71.1333 327.948 74.4333 324.615 76.9C321.348 79.4333 318.082 80.7 314.815 80.7ZM388.588 76.7C386.388 76.7 384.488 75.9667 382.888 74.5C381.222 73.0333 380.388 70.8333 380.388 67.9C380.388 65.5667 380.922 63.0333 381.988 60.3C383.055 57.5667 384.522 54.8667 386.388 52.2C388.255 49.5333 390.388 47.1333 392.788 45C395.188 42.8 397.755 41.0333 400.488 39.7C403.222 38.3667 405.955 37.7 408.688 37.7C411.555 37.7 413.988 38.4333 415.988 39.9C417.988 41.3667 418.988 43.3 418.988 45.7C418.988 47.5 418.355 48.8 417.088 49.6C415.822 50.4 414.322 50.6333 412.588 50.3C412.722 49.7 412.822 49.1 412.888 48.5C413.022 47.9 413.088 47.2667 413.088 46.6C413.088 45.2667 412.822 44.0667 412.288 43C411.755 41.9333 410.622 41.4 408.888 41.4C407.022 41.4 405.122 42.0333 403.188 43.3C401.255 44.5667 399.388 46.2333 397.588 48.3C395.855 50.3 394.288 52.5333 392.888 55C391.488 57.4 390.388 59.7667 389.588 62.1C388.788 64.4333 388.388 66.5333 388.388 68.4C388.388 70.5333 389.155 71.6 390.688 71.6C392.222 71.6 393.922 70.8667 395.788 69.4C397.655 67.8667 399.522 65.9667 401.388 63.7C403.322 61.4333 405.155 59.1333 406.888 56.8C408.622 54.4 410.122 52.3667 411.388 50.7C411.588 50.3667 411.855 50.2 412.188 50.2C412.455 50.2667 412.955 50.4333 413.688 50.7C414.488 50.9 415.222 51.2333 415.888 51.7C416.555 52.1667 416.888 52.7667 416.888 53.5C416.888 54.3667 416.422 55.5667 415.488 57.1C414.555 58.5667 413.588 60.1667 412.588 61.9C411.655 63.6333 411.188 65.2333 411.188 66.7C411.188 67.5667 411.422 68.4 411.888 69.2C412.355 69.9333 413.122 70.3 414.188 70.3C415.788 70.3 418.022 69.1333 420.888 66.8C423.822 64.4 426.788 60.3667 429.788 54.7L431.688 56.6C429.222 62.0667 426.155 66.5 422.488 69.9C418.822 73.3 415.122 75 411.388 75C408.655 75 406.622 74.1333 405.288 72.4C403.955 70.6667 403.222 68.8 403.088 66.8V66.3C400.422 69.5 397.955 72.0333 395.688 73.9C393.488 75.7667 391.122 76.7 388.588 76.7ZM432.222 100C430.555 100 428.989 99.4667 427.522 98.4C426.122 97.4 425.422 95.7667 425.422 93.5C425.422 91.3667 426.055 89.4333 427.322 87.7C428.589 86.0333 430.222 84.4667 432.222 83C434.222 81.6 436.355 80.3 438.622 79.1C440.955 77.9667 443.189 76.9 445.322 75.9C446.055 73.9667 446.855 71.5333 447.722 68.6C448.655 65.6 449.455 62.8333 450.122 60.3C448.055 63.1667 445.855 65.7 443.522 67.9C441.189 70.1 438.589 71.2 435.722 71.2C434.522 71.2 433.255 70.9667 431.922 70.5C430.589 69.9667 429.455 69.1 428.522 67.9C427.655 66.6333 427.222 64.9667 427.222 62.9C427.222 61.1667 427.522 59.0667 428.122 56.6C428.789 54.1333 429.589 51.7333 430.522 49.4C431.522 47 432.555 45.0333 433.622 43.5C434.689 41.9 435.622 41.1 436.422 41.1C436.822 41.1 437.389 41.2667 438.122 41.6C438.922 41.8667 439.689 42.2667 440.422 42.8C441.155 43.2667 441.622 43.8 441.822 44.4C441.222 45.2 440.555 46.3667 439.822 47.9C439.089 49.3667 438.389 51.0333 437.722 52.9C437.055 54.7 436.489 56.4667 436.022 58.2C435.622 59.9333 435.422 61.4333 435.422 62.7C435.422 63.7 435.622 64.5667 436.022 65.3C436.422 66.0333 437.189 66.4 438.322 66.4C439.789 66.4 441.289 65.8 442.822 64.6C444.422 63.4 445.955 61.8667 447.422 60C448.955 58.1333 450.322 56.2333 451.522 54.3C451.655 53.8333 451.789 53.1 451.922 52.1C452.055 51.1 452.289 50.0667 452.622 49C452.955 47.8667 453.522 46.8333 454.322 45.9C455.189 44.9667 456.389 44.5 457.922 44.5C458.455 44.5 458.955 44.5333 459.422 44.6C459.889 44.6667 460.455 44.7667 461.122 44.9C461.122 45.9 460.755 47.8667 460.022 50.8C459.355 53.6667 458.455 57 457.322 60.8C456.189 64.6 454.922 68.4 453.522 72.2C456.322 71.0667 459.222 69.2 462.222 66.6C465.289 63.9333 467.755 60.1667 469.622 55.3L471.322 56.7C470.322 60.0333 468.789 62.9333 466.722 65.4C464.722 67.8667 462.455 69.9667 459.922 71.7C457.389 73.4333 454.822 74.8667 452.222 76C450.422 80.3333 448.455 84.3333 446.322 88C444.255 91.6667 442.055 94.5667 439.722 96.7C437.389 98.9 434.889 100 432.222 100ZM431.222 96.3C432.489 96.3 434.255 94.9667 436.522 92.3C438.789 89.6333 441.089 85.6333 443.422 80.3C441.289 81.3667 439.122 82.6 436.922 84C434.789 85.4667 432.989 87 431.522 88.6C430.055 90.2 429.322 91.8333 429.322 93.5C429.322 94.1667 429.455 94.8 429.722 95.4C430.055 96 430.555 96.3 431.222 96.3Z" fill="white"/>
</svg>
