<svg width="590" height="502" viewBox="0 0 590 502" fill="none" xmlns="http://www.w3.org/2000/svg">
<path d="M547.543 43.1682C519.272 14.8973 482.09 0.915527 444.805 0.915527C407.52 0.915527 370.338 14.8973 342.067 43.1682L295.051 90.2863L253.003 48.2385C223.298 18.5336 191.647 0.915527 145.297 0.915527C131.111 0.915527 116.822 2.96415 103.045 7.06137C18.1809 29.9546 -32.3687 137.865 23.8146 225.546C51.4709 267.235 96.7452 291.255 145.451 291.255C178.024 291.255 208.139 280.5 232.364 262.37L422.373 116.816C430.772 110.465 442.91 112.104 449.363 120.503C455.714 128.903 454.126 141.092 445.676 147.391L357.636 215.508L294.641 388.155L269.751 401.368L277.74 276.198L250.443 296.992C177.666 359.833 244.246 447.718 278.048 484.184L294.129 500.368C294.334 500.573 294.59 500.829 294.744 500.88L295 501.085L547.492 248.593C604.033 192.051 604.033 99.71 547.543 43.1682ZM232.261 229.029L145.093 211.359L164.452 190.925L293.924 182.167L232.261 229.029Z" fill="white"/>
</svg>
